:SAMPLES-PER-SECOND 30
:FRAME-RANGE 1-2009
:FULLY-SPECIFIED
:DEGREES
1821
root  23.3223 39.2179 -27.8595 -2.32565 27.5412 -1.12112
RightUpLeg  -24.9042 7.98181 -5.5059
RightLeg  30.1196 -5.87549 -3.89799
RightFoot  2.74049 -2.00814 16.3107
RightToes  4.71047e-010 1.2921e-014 -6.02303e-014
Spine  8.66327 -3.42942 -4.78185
Spine1  0.422164 -3.85824 0.358465
HEad  9.26696 10.9231 -4.75035
LeftShoulder1  1.50253 -0.678524 -29.8632
LeftArm  11.9945 5.03886 -30.6992
LeftForeArm  7.6553 -31.9583 -6.60682
LeftHand  0.130475 -1.48989 -2.0749
RightShoulder  0.390294 -2.39915 30.1538
RightArm  33.9943 -11.5121 6.10467
RightForeArm  29.7919 29.008 4.65434
RightHand  -0.176339 3.48473 -2.55504
LeftUpLeg  -1.03983 5.27401 -7.45193
LeftLeg  15.7665 11.7951 1.18584
LeftFoot  -14.4979 0.291448 7.39934
LeftToes  2.15783e-011 -7.56106e-012 -8.20802e-012
1822
root  23.9546 39.1436 -26.9459 -2.53668 29.8133 -1.41754
RightUpLeg  -22.7521 7.10015 -5.30208
RightLeg  17.4883 -1.85853 -0.857474
RightFoot  2.14916 -2.07334 17.5292
RightToes  4.71047e-010 1.2921e-014 -6.02303e-014
Spine  8.00135 -3.69769 -4.28403
Spine1  0.730055 -4.08477 0.790118
HEad  9.64608 9.86523 -4.57566
LeftShoulder1  1.55436 -0.841645 -29.7069
LeftArm  12.0951 3.494 -31.2157
LeftForeArm  7.87512 -31.7199 -6.53335
LeftHand  0.104926 -1.54583 -1.62331
RightShoulder  0.402105 -2.3445 29.4316
RightArm  31.9079 -11.0156 5.89248
RightForeArm  30.2822 30.152 4.88929
RightHand  -0.179145 3.27174 -2.64054
LeftUpLeg  1.195 5.75967 -6.96071
LeftLeg  15.3816 9.58841 0.509384
LeftFoot  -16.1353 0.419869 7.69762
LeftToes  2.15783e-011 -7.56106e-012 -8.20802e-012
1823
root  24.6273 38.9713 -25.9995 -3.05066 32.1768 -1.09732
RightUpLeg  -19.8519 4.16396 -4.8083
RightLeg  8.62966 4.57633 -0.263597
RightFoot  0.852598 -2.03589 18.9546
RightToes  4.71047e-010 1.2921e-014 -6.02303e-014
Spine  7.54522 -3.78977 -4.10229
Spine1  1.2676 -4.23122 1.02044
HEad  10.4442 8.70946 -4.46473
LeftShoulder1  1.61523 -1.02356 -29.6148
LeftArm  13.1069 2.28923 -31.8379
LeftForeArm  6.75392 -30.8733 -6.38251
LeftHand  0.17223 -1.17567 -2.94797
RightShoulder  0.579424 -1.82933 29.0803
RightArm  29.1306 -10.0576 5.23019
RightForeArm  30.3204 30.8089 5.04013
RightHand  -0.203833 2.91207 -3.07402
LeftUpLeg  4.13944 5.7672 -7.16896
LeftLeg  15.1441 7.41519 0.315524
LeftFoot  -18.0005 0.519029 7.05001
LeftToes  2.15783e-011 -7.56106e-012 -8.20802e-012
1824
root  25.3326 38.7111 -24.9957 -3.63559 34.5324 -1.08176
RightUpLeg  -17.4434 2.02972 -4.12843
RightLeg  4.83916 6.90724 -1.196
RightFoot  1.68588 -2.23862 19.5333
RightToes  4.71047e-010 1.2921e-014 -6.02303e-014
Spine  7.02847 -3.77562 -3.4302
Spine1  1.52173 -4.26349 1.10209
HEad  11.5626 7.39636 -4.72466
LeftShoulder1  1.62131 -1.02628 -29.7295
LeftArm  14.8899 1.72209 -32.1778
LeftForeArm  6.00957 -30.3767 -6.30016
LeftHand  0.189151 -0.350618 -3.8149
RightShoulder  0.735025 -1.35284 28.5048
RightArm  25.876 -8.71113 4.69288
RightForeArm  29.3606 31.3001 5.20912
RightHand  -0.247527 2.55569 -3.82375
LeftUpLeg  6.43185 5.78002 -7.29878
LeftLeg  16.2634 6.12849 1.0847
LeftFoot  -20.5686 0.612063 6.04529
LeftToes  2.15783e-011 -7.56106e-012 -8.20802e-012
1825
root  26.0569 38.5057 -24.0805 -4.0224 36.216 -1.73996
RightUpLeg  -17.8316 2.73997 -3.78581
RightLeg  8.11939 6.46673 -0.633771
RightFoot  8.04878 -2.41751 14.4081
RightToes  4.71047e-010 1.2921e-014 -6.02303e-014
Spine  6.54189 -3.69285 -0.854655
Spine1  1.37158 -3.92925 0.189911
HEad  12.8818 6.27317 -4.53707
LeftShoulder1  1.60852 -1.01254 -29.5521
LeftArm  17.3039 2.00951 -32.4173
LeftForeArm  4.76277 -29.3527 -6.11722
LeftHand  0.188372 -0.369686 -3.78414
RightShoulder  0.914998 -0.808387 28.1849
RightArm  22.4884 -6.81456 4.08065
RightForeArm  29.4481 31.1002 5.15686
RightHand  -0.239703 2.30791 -3.80967
LeftUpLeg  8.01138 4.89149 -7.20435
LeftLeg  17.1678 5.82156 2.10022
LeftFoot  -22.1644 0.689571 5.86591
LeftToes  2.15783e-011 -7.56106e-012 -8.20802e-012
1826
root  26.7529 38.3303 -23.1954 -5.3736 37.483 -3.12347
RightUpLeg  -18.7261 5.08832 -3.84839
RightLeg  14.8464 2.5221 0.287822
RightFoot  4.51492 -1.82791 13.2946
RightToes  4.71047e-010 1.2921e-014 -6.02303e-014
Spine  6.96329 -3.48262 1.98507
Spine1  1.21744 -3.56946 0.00401957
HEad  12.8743 5.35405 -5.36862
LeftShoulder1  1.64244 -1.09332 -29.6671
LeftArm  17.8942 3.26785 -32.8866
LeftForeArm  4.38367 -28.1676 -5.85303
LeftHand  0.21686 -0.648646 -4.12781
RightShoulder  1.11363 -0.110012 26.941
RightArm  18.8514 -4.65956 3.54924
RightForeArm  28.5679 30.7623 5.12591
RightHand  -0.250069 1.6938 -4.25906
LeftUpLeg  9.4879 3.43445 -6.32497
LeftLeg  19.3512 5.84994 2.67465
LeftFoot  -23.5399 0.602202 4.30838
LeftToes  2.15783e-011 -7.56106e-012 -8.20802e-012
1827
root  27.4574 38.1938 -22.4087 -6.31802 38.1101 -4.53915
RightUpLeg  -19.0273 4.56659 -2.87175
RightLeg  19.2189 2.54058 0.776693
RightFoot  1.49838 -1.39711 12.4627
RightToes  4.71047e-010 1.2921e-014 -6.02303e-014
Spine  7.16331 -3.45666 4.98618
Spine1  1.22051 -3.22286 -0.760769
HEad  12.6061 5.34033 -6.25398
LeftShoulder1  1.63639 -0.94708 -30.7168
LeftArm  19.1767 4.98419 -32.4772
LeftForeArm  1.6623 -26.5836 -5.62686
LeftHand  0.1555 -0.455404 -3.06129
RightShoulder  1.57858 1.49719 25.5652
RightArm  15.2607 -2.19385 3.10695
RightForeArm  27.6548 29.2752 4.83114
RightHand  -0.274262 1.62717 -4.69484
LeftUpLeg  8.47351 3.60552 -4.92761
LeftLeg  25.0084 5.34437 3.06107
LeftFoot  -23.7026 0.241961 0.919499
LeftToes  2.15783e-011 -7.56106e-012 -8.20802e-012
1828
root  28.035 38.2794 -21.7707 -6.11942 40.2962 -5.48349
RightUpLeg  -18.5455 2.53907 -2.47814
RightLeg  20.1786 2.36528 0.750335
RightFoot  -0.405763 -1.18808 12.3384
RightToes  4.71047e-010 1.2921e-014 -6.02303e-014
Spine  7.22544 -3.58125 5.89002
Spine1  0.938209 -3.54127 1.00872
HEad  12.7786 4.59196 -6.46809
LeftShoulder1  1.6327 -0.923242 -30.8322
LeftArm  22.3947 6.82924 -33.4518
LeftForeArm  -1.31998 -23.2606 -5.13164
LeftHand  0.128021 -1.96674 -1.85875
RightShoulder  1.78735 2.51079 23.5965
RightArm  12.6256 -0.677969 2.45171
RightForeArm  27.3658 28.3268 4.6319
RightHand  -0.254784 1.99357 -4.18412
LeftUpLeg  4.8115 5.37157 -2.95104
LeftLeg  32.4384 3.42441 2.70088
LeftFoot  -20.3805 -0.211483 -4.21982
LeftToes  2.15783e-011 -7.56106e-012 -8.20802e-012
1829
root  28.5244 38.3478 -21.1987 -5.76907 42.9422 -6.17575
RightUpLeg  -18.1669 0.34078 -2.34809
RightLeg  21.0392 1.87946 0.580171
RightFoot  -2.1361 -0.989717 12.0706
RightToes  4.71047e-010 1.2921e-014 -6.02303e-014
Spine  7.29853 -3.70077 7.01215
Spine1  0.617213 -3.54845 1.59509
HEad  13.2035 2.18459 -6.00809
LeftShoulder1  1.61243 -0.913694 -30.449
LeftArm  21.6386 7.3834 -34.1263
LeftForeArm  1.5654 -19.162 -7.88039
LeftHand  0.140388 -3.88458 -1.495
RightShoulder  1.64266 2.33881 21.8951
RightArm  10.35 -0.00928025 1.62744
RightForeArm  26.4855 28.8114 4.78923
RightHand  -0.229623 1.30547 -4.1171
LeftUpLeg  -0.728819 8.22986 -0.965342
LeftLeg  41.4703 2.84032 3.07798
LeftFoot  -13.2903 -0.0752363 -9.08074
LeftToes  2.15783e-011 -7.56106e-012 -8.20802e-012
1830
root  28.9583 38.3718 -20.7194 -5.63959 45.3501 -6.92624
RightUpLeg  -17.8198 -2.02708 -2.12229
RightLeg  21.8669 2.24735 0.729747
RightFoot  -3.73489 -0.799132 11.5998
RightToes  4.71047e-010 1.2921e-014 -6.02303e-014
Spine  7.38064 -3.79921 8.34147
Spine1  0.616293 -3.41358 1.61581
HEad  13.1096 -1.7807 -4.98685
LeftShoulder1  1.61138 -0.906646 -30.4839
LeftArm  19.206 7.66073 -33.2411
LeftForeArm  1.01715 -15.8759 -10.9685
LeftHand  0.203403 -0.632793 -3.8797
RightShoulder  1.47313 2.04247 20.2316
RightArm  8.64347 0.0383102 1.11594
RightForeArm  25.6527 29.4816 4.98848
RightHand  -0.212405 1.33196 -3.80509
LeftUpLeg  -6.37737 11.6523 0.86491
LeftLeg  49.0324 3.0888 4.24318
LeftFoot  -7.20719 0.323861 -7.76964
LeftToes  2.15783e-011 -7.56106e-012 -8.20802e-012
1831
root  29.4234 38.5572 -20.227 -5.00894 46.8325 -6.50574
RightUpLeg  -16.4198 -4.20014 -2.55385
RightLeg  21.1147 2.91108 0.940193
RightFoot  -4.55396 -0.702373 11.2851
RightToes  4.71047e-010 1.2921e-014 -6.02303e-014
Spine  7.7281 -3.76127 8.51245
Spine1  0.421301 -3.17413 0.892891
HEad  12.9435 -6.46347 -3.61515
LeftShoulder1  1.60608 -0.880968 -30.5775
LeftArm  18.2908 8.92241 -31.5135
LeftForeArm  2.30513 -14.1449 -12.3718
LeftHand  0.291319 -0.625247 -5.59064
RightShoulder  1.44169 2.11054 19.2784
RightArm  6.91027 -0.139351 0.691014
RightForeArm  24.5903 30.0928 5.18969
RightHand  -0.200023 1.03201 -3.73107
LeftUpLeg  -10.9842 15.7285 1.47601
LeftLeg  54.5354 5.38852 8.55795
LeftFoot  -6.72872 0.291944 -6.24425
LeftToes  2.15783e-011 -7.56106e-012 -8.20802e-012
